<?xml version="1.0" encoding="UTF-8"?>
<svg id="Camada_2" data-name="Camada 2" xmlns="http://www.w3.org/2000/svg" viewBox="0 0 34.6 15.47">
  <defs>
    <style>
      .cls-1 {
        stroke-width: 0px;
      }
    </style>
  </defs>
  <g id="Camada_1-2" data-name="Camada 1">
    <g>
      <path class="cls-1" d="m31.37,11.17h-.55l-.2-.2c.85-.98,1.28-2.36,1.02-3.8-.34-1.98-1.96-3.56-3.92-3.8-2.97-.38-5.49,2.16-5.11,5.16.24,2,1.81,3.64,3.76,3.98,1.43.24,2.78-.2,3.76-1.05l.2.2v.55l2.99,3.03c.3.3.76.3,1.05,0s.3-.77,0-1.07l-2.97-3.03h-.04v.03Zm-4.22,0c-1.74,0-3.17-1.43-3.17-3.21s1.4-3.21,3.17-3.21,3.17,1.43,3.17,3.21-1.4,3.21-3.17,3.21Z"/>
      <path class="cls-1" d="m5.01,0L0,12.77h2.05l1.03-2.73h5.69l1.03,2.73h2.05L6.84,0h-1.83Zm-1.26,8.21l2.16-5.77,2.16,5.77H3.76Zm11.99,2.79h6.82v1.77h-9.51v-1.44L19.66,1.79h-6.55V.01h9.25v1.4s-6.61,9.58-6.61,9.58Z"/>
    </g>
  </g>
</svg>