<?xml version="1.0" encoding="UTF-8"?>
<svg id="Camada_2" data-name="Camada 2" xmlns="http://www.w3.org/2000/svg" viewBox="0 0 22.84 16.96">
  <defs>
    <style>
      .cls-1 {
        stroke-width: 0px;
      }
    </style>
  </defs>
  <g id="Camada_1-2" data-name="Camada 1">
    <g>
      <path class="cls-1" d="m4.02,10.92h7.06v-1.99h-7.06v-2.98L0,9.92l4.02,3.97v-2.98.02h0Zm14.08-6.95L14.08,0v2.98h-7.06v1.99h7.06v2.98l4.02-3.97v-.02h0Z"/>
      <path class="cls-1" d="m20.44,13.76h-.41l-.15-.15c.63-.73.95-1.75.76-2.82-.25-1.47-1.45-2.64-2.91-2.82-2.2-.28-4.07,1.6-3.79,3.83.18,1.48,1.34,2.7,2.79,2.95,1.06.18,2.06-.15,2.79-.78l.15.15v.41l2.22,2.25c.22.22.56.22.78,0s.22-.57,0-.79l-2.2-2.25h-.03Zm-3.13,0c-1.29,0-2.35-1.06-2.35-2.38s1.04-2.38,2.35-2.38,2.35,1.06,2.35,2.38-1.04,2.38-2.35,2.38Z"/>
    </g>
  </g>
</svg>